<svg width="35" height="38" viewBox="0 0 35 38" fill="none" xmlns="http://www.w3.org/2000/svg">
<path d="M0.955888 35.3342V29.516H2.98998C3.39528 29.516 3.72956 29.5861 3.99282 29.7263C4.25608 29.8645 4.4521 30.0511 4.58089 30.2859C4.70968 30.5189 4.77407 30.7774 4.77407 31.0615C4.77407 31.3115 4.72956 31.5179 4.64055 31.6808C4.55343 31.8437 4.4379 31.9725 4.29396 32.0672C4.15191 32.1619 3.99755 32.232 3.83089 32.2774V32.3342C4.00892 32.3456 4.1879 32.4081 4.36782 32.5217C4.54774 32.6354 4.69831 32.7982 4.81952 33.0104C4.94074 33.2225 5.00134 33.482 5.00134 33.7888C5.00134 34.0804 4.93505 34.3428 4.80248 34.5757C4.6699 34.8087 4.46062 34.9933 4.17464 35.1297C3.88865 35.266 3.51649 35.3342 3.05816 35.3342H0.955888ZM1.66043 34.7092H3.05816C3.51839 34.7092 3.84509 34.6202 4.03827 34.4422C4.23335 34.2623 4.33089 34.0445 4.33089 33.7888C4.33089 33.5918 4.2807 33.41 4.18032 33.2433C4.07994 33.0748 3.93695 32.9403 3.75134 32.8399C3.56574 32.7376 3.34604 32.6865 3.09225 32.6865H1.66043V34.7092ZM1.66043 32.0729H2.96725C3.17937 32.0729 3.37066 32.0312 3.54112 31.9479C3.71346 31.8645 3.84983 31.7471 3.95021 31.5956C4.05248 31.4441 4.10362 31.266 4.10362 31.0615C4.10362 30.8058 4.0146 30.589 3.83657 30.4109C3.65854 30.231 3.37634 30.141 2.98998 30.141H1.66043V32.0729ZM6.15901 35.3342V29.516H8.12492C8.57947 29.516 8.95257 29.5937 9.24424 29.749C9.53591 29.9024 9.75182 30.1136 9.89197 30.3825C10.0321 30.6515 10.1022 30.9573 10.1022 31.3001C10.1022 31.6429 10.0321 31.9469 9.89197 32.2121C9.75182 32.4772 9.53685 32.6856 9.24708 32.8371C8.95731 32.9867 8.58704 33.0615 8.13629 33.0615H6.54538V32.4251H8.11356C8.42416 32.4251 8.67416 32.3797 8.86356 32.2888C9.05485 32.1979 9.1931 32.0691 9.27833 31.9024C9.36545 31.7338 9.40901 31.5331 9.40901 31.3001C9.40901 31.0672 9.36545 30.8636 9.27833 30.6893C9.19121 30.5151 9.05201 30.3806 8.86072 30.2859C8.66943 30.1893 8.41659 30.141 8.1022 30.141H6.86356V35.3342H6.15901ZM8.89765 32.7206L10.3295 35.3342H9.51129L8.1022 32.7206H8.89765ZM16.1853 32.4251C16.1853 33.0388 16.0745 33.5691 15.8529 34.016C15.6313 34.463 15.3273 34.8077 14.941 35.0501C14.5546 35.2926 14.1133 35.4138 13.6171 35.4138C13.1209 35.4138 12.6796 35.2926 12.2932 35.0501C11.9069 34.8077 11.6029 34.463 11.3813 34.016C11.1597 33.5691 11.0489 33.0388 11.0489 32.4251C11.0489 31.8115 11.1597 31.2812 11.3813 30.8342C11.6029 30.3873 11.9069 30.0426 12.2932 29.8001C12.6796 29.5577 13.1209 29.4365 13.6171 29.4365C14.1133 29.4365 14.5546 29.5577 14.941 29.8001C15.3273 30.0426 15.6313 30.3873 15.8529 30.8342C16.0745 31.2812 16.1853 31.8115 16.1853 32.4251ZM15.5035 32.4251C15.5035 31.9213 15.4192 31.4962 15.2506 31.1496C15.084 30.803 14.8576 30.5407 14.5717 30.3626C14.2876 30.1846 13.9694 30.0956 13.6171 30.0956C13.2648 30.0956 12.9457 30.1846 12.6597 30.3626C12.3756 30.5407 12.1493 30.803 11.9807 31.1496C11.8141 31.4962 11.7307 31.9213 11.7307 32.4251C11.7307 32.9289 11.8141 33.3541 11.9807 33.7007C12.1493 34.0473 12.3756 34.3096 12.6597 34.4876C12.9457 34.6657 13.2648 34.7547 13.6171 34.7547C13.9694 34.7547 14.2876 34.6657 14.5717 34.4876C14.8576 34.3096 15.084 34.0473 15.2506 33.7007C15.4192 33.3541 15.5035 32.9289 15.5035 32.4251ZM18.4268 35.3342L16.8359 29.516H17.5518L18.7677 34.2547H18.8245L20.0631 29.516H20.8586L22.0972 34.2547H22.154L23.37 29.516H24.0859L22.495 35.3342H21.7677L20.4836 30.6979H20.4381L19.154 35.3342H18.4268ZM28.1455 30.9706C28.1114 30.6827 27.9732 30.4592 27.7307 30.3001C27.4883 30.141 27.191 30.0615 26.8387 30.0615C26.5811 30.0615 26.3557 30.1032 26.1626 30.1865C25.9713 30.2698 25.8217 30.3844 25.7137 30.5303C25.6076 30.6761 25.5546 30.8418 25.5546 31.0274C25.5546 31.1827 25.5915 31.3162 25.6654 31.428C25.7412 31.5378 25.8378 31.6297 25.9552 31.7035C26.0726 31.7755 26.1957 31.8352 26.3245 31.8825C26.4533 31.928 26.5717 31.9649 26.6796 31.9933L27.2705 32.1524C27.422 32.1922 27.5906 32.2471 27.7762 32.3172C27.9637 32.3873 28.1427 32.4829 28.3131 32.6041C28.4855 32.7234 28.6275 32.8768 28.7393 33.0643C28.851 33.2518 28.9069 33.482 28.9069 33.7547C28.9069 34.0691 28.8245 34.3532 28.6597 34.607C28.4968 34.8607 28.2582 35.0624 27.9438 35.2121C27.6313 35.3617 27.2516 35.4365 26.8046 35.4365C26.3879 35.4365 26.0271 35.3693 25.7222 35.2348C25.4192 35.1003 25.1806 34.9128 25.0063 34.6723C24.834 34.4318 24.7364 34.1524 24.7137 33.8342H25.441C25.4599 34.0539 25.5338 34.2357 25.6626 34.3797C25.7932 34.5217 25.958 34.6278 26.1569 34.6979C26.3576 34.766 26.5735 34.8001 26.8046 34.8001C27.0735 34.8001 27.315 34.7566 27.529 34.6695C27.7431 34.5804 27.9126 34.4573 28.0376 34.3001C28.1626 34.141 28.2251 33.9554 28.2251 33.7433C28.2251 33.5501 28.1711 33.3929 28.0631 33.2717C27.9552 33.1505 27.8131 33.052 27.637 32.9763C27.4609 32.9005 27.2705 32.8342 27.066 32.7774L26.3501 32.5729C25.8955 32.4422 25.5357 32.2556 25.2705 32.0132C25.0054 31.7708 24.8728 31.4535 24.8728 31.0615C24.8728 30.7357 24.9609 30.4517 25.137 30.2092C25.315 29.9649 25.5537 29.7755 25.8529 29.641C26.154 29.5047 26.4902 29.4365 26.8614 29.4365C27.2364 29.4365 27.5698 29.5037 27.8614 29.6382C28.1531 29.7708 28.3842 29.9526 28.5546 30.1837C28.727 30.4147 28.8179 30.677 28.8273 30.9706H28.1455ZM30.0653 35.3342V29.516H33.5766V30.141H30.7698V32.107H33.3948V32.732H30.7698V34.7092H33.6221V35.3342H30.0653Z" fill="white" fill-opacity="0.745098"/>
<path d="M24.589 0.923035L27.2016 6.23558H23.2827L20.6702 0.923035H18.0576L20.6702 6.23558H16.7513L14.1387 0.923035H11.5261L14.1387 6.23558H10.2198L7.60723 0.923035H6.30094C4.86402 0.923035 3.70142 2.11836 3.70142 3.57931L3.68835 19.5169C3.68835 20.9779 4.86402 22.1732 6.30094 22.1732H27.2016C28.6385 22.1732 29.8142 20.9779 29.8142 19.5169V0.923035H24.589Z" fill="#C6C6C6"/>
</svg>
