<svg width="11" height="11" viewBox="0 0 11 11" fill="none" xmlns="http://www.w3.org/2000/svg">
<path d="M5.50392 1.00138L6.63612 3.29551C6.71485 3.45506 6.86708 3.56562 7.04318 3.59117L9.57496 3.95907C10.0185 4.02357 10.1954 4.56841 9.8746 4.88104L8.04261 6.66675C7.9153 6.79092 7.85709 6.96995 7.88724 7.14522L8.31964 9.66674C8.39544 10.1084 7.93184 10.4451 7.53525 10.2367L5.27086 9.04631C5.1134 8.9636 4.92515 8.9636 4.76769 9.04631L2.5033 10.2367C2.10671 10.4453 1.64311 10.1084 1.71891 9.66674L2.15131 7.14522C2.18146 6.96995 2.12325 6.79092 1.99594 6.66675L0.16395 4.88104C-0.156842 4.5682 0.0200963 4.02336 0.463593 3.95907L2.99538 3.59117C3.17148 3.56562 3.32371 3.45506 3.40244 3.29551L4.53463 1.00138C4.73272 0.599555 5.30562 0.599555 5.50392 1.00138Z" fill="url(#paint0_linear_2_421)"/>
<defs>
<linearGradient id="paint0_linear_2_421" x1="2.5097" y1="3.10001" x2="2.5097" y2="3.10001" gradientUnits="userSpaceOnUse">
<stop stop-color="#FFBB3B"/>
<stop offset="1" stop-color="#FFA90A"/>
</linearGradient>
</defs>
</svg>
